<svg width="248" height="200" viewBox="0 0 248 200" fill="none" xmlns="http://www.w3.org/2000/svg">
<g clip-path="url(#clip0_5126_193)">
<path d="M76.0325 63.4893C75.3148 90.4527 111.288 117.977 156.191 117.977C201.095 117.977 272.603 64.8203 238.641 63.4893C173.201 60.9246 150.775 33.846 157.337 14.6505C169.088 -19.7271 77.4458 10.3983 76.0325 63.4893Z" fill="#3F3D56"/>
<path d="M135.761 42.1337L135.214 41.7855L135.562 41.2385L135.413 41.1438L135.065 41.6908L134.517 41.3426L134.422 41.4917L134.97 41.8399L134.621 42.3869L134.771 42.4819L135.119 41.9349L135.666 42.2828L135.761 42.1337Z" fill="#6833FF"/>
<path d="M176.473 81.7399L175.926 81.3917L176.274 80.8447L176.125 80.75L175.777 81.297L175.229 80.9488L175.134 81.0979L175.682 81.4461L175.333 81.9931L175.483 82.0881L175.831 81.5411L176.378 81.889L176.473 81.7399Z" fill="#6833FF"/>
<path d="M110.584 76.923L110.037 76.5748L110.385 76.0278L110.236 75.9331L109.888 76.4801L109.34 76.1319L109.245 76.281L109.792 76.6292L109.444 77.1761L109.593 77.2711L109.942 76.7242L110.489 77.0721L110.584 76.923Z" fill="#6833FF"/>
<path d="M159.867 102.613L159.32 102.265L159.668 101.718L159.519 101.624L159.17 102.171L158.623 101.822L158.528 101.971L159.075 102.32L158.727 102.867L158.876 102.962L159.224 102.415L159.772 102.762L159.867 102.613Z" fill="#6833FF"/>
<path d="M114.066 92.7121L113.519 92.3639L113.867 91.8169L113.718 91.7222L113.369 92.2692L112.822 91.921L112.727 92.0701L113.274 92.4182L112.926 92.9652L113.075 93.0602L113.424 92.5132L113.971 92.8611L114.066 92.7121Z" fill="#6833FF"/>
<path d="M224.417 79.5993L223.87 79.2511L224.218 78.7041L224.069 78.6094L223.72 79.1564L223.173 78.8082L223.078 78.9573L223.625 79.3054L223.277 79.8524L223.426 79.9474L223.775 79.4004L224.322 79.7483L224.417 79.5993Z" fill="#6833FF"/>
<path d="M102.817 47.2184L102.269 46.8702L102.618 46.3233L102.468 46.2285L102.12 46.7755L101.573 46.4273L101.478 46.5764L102.025 46.9246L101.677 47.4716L101.826 47.5666L102.174 47.0196L102.722 47.3675L102.817 47.2184Z" fill="#6833FF"/>
<path d="M148.618 53.2338L147.851 52.7468L148.339 51.9809L148.13 51.8481L147.642 52.6138L146.876 52.1265L146.743 52.3355L147.509 52.8225L147.022 53.5884L147.231 53.7214L147.718 52.9555L148.485 53.4428L148.618 53.2338Z" fill="white"/>
<path d="M121.03 63.3554C121.474 63.3554 121.833 62.996 121.833 62.5526C121.833 62.1092 121.474 61.7498 121.03 61.7498C120.586 61.7498 120.226 62.1092 120.226 62.5526C120.226 62.996 120.586 63.3554 121.03 63.3554Z" fill="#6833FF"/>
<path d="M89.6924 63.3554C90.1362 63.3554 90.496 62.996 90.496 62.5526C90.496 62.1092 90.1362 61.7498 89.6924 61.7498C89.2487 61.7498 88.8889 62.1092 88.8889 62.5526C88.8889 62.996 89.2487 63.3554 89.6924 63.3554Z" fill="#6833FF"/>
<path d="M144.332 33.9184C144.776 33.9184 145.136 33.559 145.136 33.1156C145.136 32.6722 144.776 32.3127 144.332 32.3127C143.889 32.3127 143.529 32.6722 143.529 33.1156C143.529 33.559 143.889 33.9184 144.332 33.9184Z" fill="#6833FF"/>
<path d="M136.833 82.8908C137.276 82.8908 137.636 82.5314 137.636 82.088C137.636 81.6446 137.276 81.2852 136.833 81.2852C136.389 81.2852 136.029 81.6446 136.029 82.088C136.029 82.5314 136.389 82.8908 136.833 82.8908Z" fill="#6833FF"/>
<path d="M136.297 65.7638C136.593 65.7638 136.833 65.5242 136.833 65.2286C136.833 64.933 136.593 64.6934 136.297 64.6934C136.001 64.6934 135.761 64.933 135.761 65.2286C135.761 65.5242 136.001 65.7638 136.297 65.7638Z" fill="#6833FF"/>
<path d="M191.205 89.3136C191.501 89.3136 191.74 89.074 191.74 88.7784C191.74 88.4828 191.501 88.2432 191.205 88.2432C190.909 88.2432 190.669 88.4828 190.669 88.7784C190.669 89.074 190.909 89.3136 191.205 89.3136Z" fill="#FF6584"/>
<path d="M109.245 60.1442C109.541 60.1442 109.781 59.9045 109.781 59.609C109.781 59.3134 109.541 59.0737 109.245 59.0737C108.949 59.0737 108.709 59.3134 108.709 59.609C108.709 59.9045 108.949 60.1442 109.245 60.1442Z" fill="#FF6584"/>
<path d="M142.725 16.7914C143.021 16.7914 143.261 16.5518 143.261 16.2562C143.261 15.9606 143.021 15.7209 142.725 15.7209C142.429 15.7209 142.19 15.9606 142.19 16.2562C142.19 16.5518 142.429 16.7914 142.725 16.7914Z" fill="#FF6584"/>
<path d="M120.762 41.6791C121.058 41.6791 121.298 41.4395 121.298 41.1439C121.298 40.8483 121.058 40.6086 120.762 40.6086C120.466 40.6086 120.226 40.8483 120.226 41.1439C120.226 41.4395 120.466 41.6791 120.762 41.6791Z" fill="#6833FF"/>
<path d="M127.458 23.7491C127.754 23.7491 127.994 23.5095 127.994 23.2139C127.994 22.9183 127.754 22.6787 127.458 22.6787C127.162 22.6787 126.922 22.9183 126.922 23.2139C126.922 23.5095 127.162 23.7491 127.458 23.7491Z" fill="white"/>
<path d="M207.543 72.1865C207.987 72.1865 208.347 71.827 208.347 71.3836C208.347 70.9402 207.987 70.5808 207.543 70.5808C207.099 70.5808 206.74 70.9402 206.74 71.3836C206.74 71.827 207.099 72.1865 207.543 72.1865Z" fill="#6833FF"/>
<path d="M154.242 75.1303C154.686 75.1303 155.046 74.7709 155.046 74.3275C155.046 73.8841 154.686 73.5247 154.242 73.5247C153.799 73.5247 153.439 73.8841 153.439 74.3275C153.439 74.7709 153.799 75.1303 154.242 75.1303Z" fill="#6833FF"/>
<path d="M140.582 96.0038C142.062 96.0038 143.261 94.8057 143.261 93.3277C143.261 91.8497 142.062 90.6516 140.582 90.6516C139.103 90.6516 137.904 91.8497 137.904 93.3277C137.904 94.8057 139.103 96.0038 140.582 96.0038Z" fill="#6833FF"/>
<path d="M172.991 64.9611C173.435 64.9611 173.795 64.6017 173.795 64.1583C173.795 63.7149 173.435 63.3555 172.991 63.3555C172.548 63.3555 172.188 63.7149 172.188 64.1583C172.188 64.6017 172.548 64.9611 172.991 64.9611Z" fill="white"/>
<path d="M25.1223 192.844C25.1223 192.844 23.6231 199.107 24.986 199.379C26.3488 199.652 33.0266 199.564 34.662 199.836C36.2974 200.108 39.7045 199.652 39.7045 198.426C39.7045 197.201 36.1611 196.384 36.1611 196.384C36.1611 196.384 31.1187 193.66 30.9824 193.524C30.8461 193.388 25.1223 192.844 25.1223 192.844Z" fill="#2F2E41"/>
<path d="M26.7274 148.12C26.7274 148.12 27.2163 153.655 27.2163 154.143C27.2163 154.632 24.2833 180.354 24.9351 185.564C25.5868 190.773 24.8747 192.437 24.8747 193.414C24.8747 194.391 30.1492 194.029 30.1492 194.029L35.8521 158.051L32.9192 147.306L26.7274 148.12Z" fill="#2F2E41"/>
<path d="M27.0303 194.215C27.0303 194.215 25.6674 199.117 27.0303 199.389C28.3931 199.661 35.0709 199.077 36.7063 199.349C38.3417 199.622 41.7487 199.661 41.7487 198.436C41.7487 197.21 38.2054 196.393 38.2054 196.393C38.2054 196.393 33.163 193.67 33.0267 193.534C32.8904 193.398 27.0303 194.215 27.0303 194.215Z" fill="#2F2E41"/>
<path d="M25.2609 141.608C25.2609 141.608 23.3056 146.329 25.5868 148.771C27.868 151.213 30.475 156.097 30.475 156.423C30.475 156.748 25.9127 189.145 26.5644 191.262C27.2162 193.378 27.0532 194.68 26.8903 195.006C26.7274 195.332 28.5197 197.122 30.475 197.122C32.4303 197.122 35.3632 195.657 35.6891 194.355C36.015 193.052 35.2003 181.819 35.3632 179.703C35.5262 177.587 42.0438 143.724 41.2291 142.91C40.4144 142.096 25.2609 141.608 25.2609 141.608Z" fill="#2F2E41"/>
<path d="M37.6445 104.164C40.7041 104.164 43.1845 101.686 43.1845 98.6289C43.1845 95.5719 40.7041 93.0938 37.6445 93.0938C34.5848 93.0938 32.1045 95.5719 32.1045 98.6289C32.1045 101.686 34.5848 104.164 37.6445 104.164Z" fill="#9F616A"/>
<path d="M34.2227 101.396C34.2227 101.396 35.3632 107.42 34.5485 108.071C33.7338 108.722 40.7403 109.699 40.7403 109.699C40.7403 109.699 41.555 101.722 41.7179 100.908C41.8809 100.094 34.2227 101.396 34.2227 101.396Z" fill="#9F616A"/>
<path d="M41.7179 109.211C41.7179 109.211 42.7689 103.474 34.7848 105.102C34.7848 105.102 27.4951 111.074 27.821 116.61C28.1468 122.145 25.2609 138.189 25.5868 139.328C25.9127 140.468 23.6315 141.933 24.6092 142.422C25.5868 142.91 43.1844 145.84 43.6732 142.422C44.162 139.003 43.5103 130.374 43.8361 128.746C44.162 127.119 43.8361 113.443 42.8585 111.815C41.8809 110.187 41.7179 109.211 41.7179 109.211Z" fill="#6833FF"/>
<path d="M38.2962 148.934C38.2962 148.934 35.8521 158.213 38.9479 158.213C42.0438 158.213 41.8809 148.608 41.8809 148.608L38.2962 148.934Z" fill="#9F616A"/>
<path d="M39.9015 99.5524C39.8308 100.019 39.1093 100.213 38.0503 100.122L38.0487 100.122C37.6002 100.08 37.1555 100.004 36.7186 99.8946C36.0577 99.7322 35.6853 100.32 35.4451 101.133C35.0508 102.475 35.0211 104.434 34.6743 104.69C32.253 106.027 25.0987 97.062 28.7648 94.7409C30.0705 93.9142 34.4659 90.8276 37.5026 91.4512C40.5392 92.0749 39.3099 95.8407 39.3099 95.8407C39.3099 95.8407 39.4213 96.335 39.5476 96.9699C39.7275 97.7698 39.8491 98.5817 39.9115 99.3992C39.9115 99.4504 39.9082 99.5016 39.9015 99.5524Z" fill="#2F2E41"/>
<path d="M40.2515 110.839C40.2515 110.839 34.7115 110.513 34.2227 118.653C33.7339 126.793 33.8968 134.445 33.8968 134.607C33.8968 134.77 36.178 150.236 38.2962 150.236C40.4144 150.236 42.0438 149.911 42.5327 149.097C43.0215 148.283 41.2291 136.561 41.2291 136.561C41.2291 136.561 40.4144 124.188 41.7179 120.281C43.0215 116.374 43.1844 111.327 40.2515 110.839Z" fill="#6833FF"/>
<path opacity="0.1" d="M33.9813 120.892L32.3743 138.286L37.7311 150.329L34.2492 138.019L33.9813 120.624" fill="black"/>
<path opacity="0.1" d="M41.7487 122.765L42.158 143.272L40.6774 132.131L41.7487 122.765Z" fill="black"/>
<path d="M69.5331 200H0.5V199.437H69.6354L69.5331 200Z" fill="#3F3D56"/>
</g>
<defs>
<clipPath id="clip0_5126_193">
<rect width="247" height="200" fill="white" transform="translate(0.5)"/>
</clipPath>
</defs>
</svg>
